Simulation
nRows=38
nColumns=15
endheader
time  TH_x TH_y TH_z SC_y  SC_z  SC_x  AC_y  AC_z  AC_x  GH_y  GH_z  GH_yy  EL_x  PS_y
1.4450000000000003  0.000000  0.000000  0.000000  -56.42582260950695  14.723616763883314  24.15469213699545  53.71054910868178  15.831082819838525  17.41792605306894  -4.485899824374553  47.69340992219333  -1.0222658788249688  17.229032153650067  120.000000
1.4739000000000002  0.000000  0.000000  0.000000  -56.43837320483125  14.580043843354371  24.682261149861453  53.879282973830406  15.676585838161374  17.231699695181877  -4.510106286854185  47.885335517520424  -1.014144217580974  17.165121814229096  120.000000
1.5028000000000004  0.000000  0.000000  0.000000  -56.38069728402345  14.425842205413339  24.967002906318875  54.0583414408875  15.52195742677243  17.002384480589125  -4.517804871854309  48.07233531614933  -1.1289208368882129  17.113212059446322  120.000000
1.5317000000000003  0.000000  0.000000  0.000000  -56.25392959055688  14.268782610538535  25.001556617245996  54.24373813872045  15.366453122613118  16.736069154824463  -4.507794056513699  48.24788573592032  -1.376045695256133  17.069321807345244  120.000000
1.5606000000000002  0.000000  0.000000  0.000000  -56.06097569921571  14.114785229145024  24.77994196835756  54.43290559112962  15.206097106988883  16.440838036198535  -4.481066172377011  48.410194876939734  -1.7541174323839746  17.03164182533963  120.000000
1.5895000000000004  0.000000  0.000000  0.000000  -55.8059768905964  13.967037469385811  24.29804228760099  54.62391591305135  15.034468593215095  16.12660588824914  -4.440077031374325  48.561702561554824  -2.2511289347103824  17.000955919128604  120.000000
1.6184000000000003  0.000000  0.000000  0.000000  -55.49358554902638  13.82491300891622  23.554623837673688  54.81453517462032  14.843978478164706  15.804948019762218  -4.3880339145541845  48.70780328715548  -2.8461818051197922  16.980252886181358  120.000000
1.6473000000000002  0.000000  0.000000  0.000000  -55.12842200546703  13.683303887914413  22.55247557227716  55.00159931072931  14.627344404955055  15.488382243088216  -4.328099994489999  48.855237081895325  -3.511916691180081  16.973394537363237  120.000000
1.6762000000000004  0.000000  0.000000  0.000000  -54.71503681019355  13.532397748548133  21.299637281460946  55.18084158593829  14.378818870783803  15.189603368871895  -4.262942885899189  49.01051424575671  -4.217679745028523  16.983642982341824  120.000000
1.7051000000000003  0.000000  0.000000  0.000000  -54.258408947830375  13.35848421090258  19.81020942181686  55.347397489393494  14.095021390495319  14.920042792039725  -4.194377844468439  49.178632192389514  -4.932424017524068  17.012178701818353  120.000000
1.7340000000000004  0.000000  0.000000  0.000000  -53.76486215318884  13.14519942680152  18.104947791558278  55.496295928506456  13.775068064040154  14.688938132780777  -4.123196495361705  49.362266319501686  -5.627536528491215  17.05743825974363  120.000000
1.7629000000000004  0.000000  0.000000  0.000000  -53.24290873036779  12.875702811818797  16.21108559232163  55.623134813832856  13.420208095681922  14.50204786742918  -4.049020599507851  49.56141214627095  -6.278703283830323  17.11498369198878  120.000000
1.7918000000000003  0.000000  0.000000  0.000000  -52.70365497041185  12.53459242029512  14.161911218579203  55.72399475468689  13.033030907933265  14.361410699471866  -3.9703375259291698  49.77335355784672  -6.867359544454944  17.178299241808727  120.000000
1.8207000000000004  0.000000  0.000000  0.000000  -52.16043143420116  12.110172778352467  11.995512827918295  55.795403858323205  12.616639861236385  14.264849991558032  -3.8845400324160826  49.992734220975656  -7.3812261385383  17.239816293433243  120.000000
1.8496000000000004  0.000000  0.000000  0.000000  -51.627522282821324  11.595706802961864  9.753403728420407  55.83359621474514  12.174136512196762  14.206530870402888  -3.7881059638378156  50.21144303842877  -7.8147237794077835  17.292346152137547  120.000000
1.8785000000000003  0.000000  0.000000  0.000000  -51.11802463772069  10.990479964672796  7.478629484783889  55.834316122827296  11.70859579114097  14.177309100590564  -3.6765618326626166  50.41821355670719  -8.168946319078401  17.330170303253734  120.000000
1.9074000000000004  0.000000  0.000000  0.000000  -50.641706510891865  10.299765702037122  5.21389381331164  55.79279914623045  11.223780302408496  14.165234562655026  -3.54482088513111  50.59771144495352  -8.45152516734396  17.350139209774586  120.000000
1.9363000000000004  0.000000  0.000000  0.000000  -50.20308108189621  9.53351778036378  2.999830159297112  55.70271778949408  10.725356487605248  14.155527975699  -3.3892707531624935  50.72944027748101  -8.674896756569362  17.351663509418078  120.000000
1.9652000000000003  0.000000  0.000000  0.000000  -49.79992187349692  8.70532566915263  0.873318084405199  55.555619557223274  10.222214826689145  14.130842191934496  -3.2108630691503204  50.78629608137775  -8.854561334843497  17.334019331806086  120.000000
1.9941000000000004  0.000000  0.000000  0.000000  -49.42320917628744  7.831095982226287  -1.1334169425556309  55.3416381427096  9.72760016858871  14.072542251588622  -3.0161943627918655  50.73379127942809  -9.006797783560975  17.296415861825718  120.000000
2.0230000000000006  0.000000  0.000000  0.000000  -49.0578426794547  6.927791230876435  -2.992648350148287  55.05183559910266  9.259854395298587  13.961426995901258  -2.8163236706941945  50.531068843813  -9.146595265028555  17.23962023750647  120.000000
2.0519000000000003  0.000000  0.000000  0.000000  -48.68447753436384  6.012997735881212  -4.679948363512524  54.67951703375483  8.841042709196271  13.780351531217164  -2.62503996842681  50.133868803920635  -9.285889030987846  17.164853378284434  120.000000
2.0808000000000004  0.000000  0.000000  0.000000  -48.283920006108254  5.105987932149907  -6.174160542617171  54.222448407672765  8.493603082145908  13.515706340538394  -2.45526537800342  49.50021599766861  -9.43289344241476  17.0731767441514  120.000000
2.1097000000000006  0.000000  0.000000  0.000000  -47.84236951474922  4.228520206072337  -7.45786349115632  53.684028223838354  8.235165459793276  13.16000600195061  -2.3144179613812774  48.59781728627441  -9.592104950649997  16.965577113132337  120.000000
2.1386000000000003  0.000000  0.000000  0.000000  -47.35608996559681  3.4039980577089017  -8.51879342202946  53.074256824961694  8.073348611360982  12.712955791200788  -2.1996751380577204  47.41138064017092  -9.765290103153813  16.84342790273544  120.000000
2.1675000000000004  0.000000  0.000000  0.000000  -46.83370614226199  2.6554965596500013  -9.351574265573259  52.40961471906289  8.001751220528758  12.181510948551104  -2.0958485012215844  45.94661469046151  -9.951951474539577  16.70905003488169  120.000000
2.1964000000000006  0.000000  0.000000  0.000000  -46.29584135602263  2.0020366698926417  -9.95852818012863  51.711107287431474  7.99925120809063  11.578722689853338  -1.9760550476696117  44.22937216942429  -10.149718645278586  16.56620118757118  120.000000
2.2253000000000003  0.000000  0.000000  0.000000  -45.77152314444423  1.4561296052079695  -10.34963056899649  51.000706823904466  8.032486163134335  10.921753962030841  -1.806197587041539  42.300943407860835  -10.353818264798205  16.419004839693482  120.000000
2.2542000000000004  0.000000  0.000000  0.000000  -45.2913227960378  1.025740945425248  -10.541738899035401  50.29809249659307  8.061455363517288  10.230415601576683  -1.5509292893776907  40.211964865817684  -10.557671316897618  16.26633135508799  120.000000
2.2831000000000006  0.000000  0.000000  0.000000  -44.879613261055766  0.7164019935738593  -10.557285148328477  49.61817550960408  8.047734278767175  9.523928727955894  -1.1800413828505576  38.01633023676093  -10.750655240067488  16.103494601494003  120.000000
2.3120000000000003  0.000000  0.000000  0.000000  -44.55091164143701  0.5297625161893702  -10.421846225781723  48.97235917719935  7.959943705997045  8.819048576143295  -0.6708511164846864  35.76560489506584  -10.917441124679433  15.925858952474108  120.000000
2.3409000000000004  0.000000  0.000000  0.000000  -44.30967237460179  0.462696193866501  -10.160028150231243  48.36866181760362  7.7751589946204405  8.131730627993282  -0.009561277697572498  33.504021928174964  -11.039179533911065  15.72903108200939  120.000000
2.3698000000000006  0.000000  0.000000  0.000000  -44.15050434543978  0.509065163994393  -9.793760757528506  47.81281188383352  7.481183380330211  7.4745945306324595  0.8068391185376438  31.267196495023835  -11.09483296689635  15.509176032078459  120.000000
2.3987000000000003  0.000000  0.000000  0.000000  -44.06158239081956  0.6618591247834144  -9.340972424051714  47.30798858445158  7.077169952594715  6.857963959281622  1.7696228370855294  29.08231308201625  -11.063219953578166  15.264454363104536  120.000000
2.4276000000000004  0.000000  0.000000  0.000000  -44.0276288602445  0.914704905358899  -8.815263465460692  46.856834048362906  6.573529678652862  6.290462265269251  2.8610367919632385  26.968135839420015  -10.927673031044383  14.996707057607013  120.000000
2.4565000000000006  0.000000  0.000000  0.000000  -44.03107483877146  1.2623448643623025  -8.22707921513637  46.462066041451116  5.9922867366105  5.780449251570973  4.054929936461486  24.934224358268633  -10.678433043671403  14.712439740467024  120.000000
2.4854000000000003  0.000000  0.000000  0.000000  -44.05423979158147  1.6988680850233957  -7.578755911206281  46.1271009126725  5.362505385249615  5.33339508737775  5.318820116840133  22.979515066528037  -10.314359868131648  14.423516030401908  120.000000
2.5143000000000004  0.000000  0.000000  0.000000  -44.079339423549584  2.2159106353794735  -6.8629432702704385  45.85871035057201  4.715436420015087  4.948223810126272  6.617044362222098  21.090456982457074  -9.844242899636992  14.145775265087519  120.000000
